<?xml version="1.0" encoding="utf-8"?>
<!DOCTYPE svg PUBLIC "-//W3C//DTD SVG 1.1//EN" "http://www.w3.org/Graphics/SVG/1.1/DTD/svg11.dtd">
<svg xmlns="http://www.w3.org/2000/svg" xml:space="preserve" width="1476.051" height="874.293">
  <path fill="#960018" d="M0 0h1476.051v874.293H0z"/>
  <g fill="#ECBF69">
    <path d="M282.752 580.891c-.796-.546-1.644-1.15-2.509-1.802-9.602-4.467-27.076-14.182-47.772-33.049-26.469-24.13-54.474-65.878-54.948-125.32 0 0-13.805 4.026-19.55 26.7-6.131 24.198-4.526 57.293 57.659 91.308.001 0 35.021 32.302 67.12 42.163zm25.297 139.192c-6.258-4.546-11.525-3.881-17.148-3.213-4.781.565-10.042-.764-13.818-6.466-27.099-62.643 4.036-50.128 4.036-50.128-4.283-8.142-12.244-4.571-12.244-4.571-.651.388-1.17.691-1.517.912-.347.219-.533.336-.533.336s.14-.173.421-.486c.286-.305.697-.767 1.264-1.3.563-.539 1.255-1.189 2.097-1.873.835-.695 1.816-1.426 2.918-2.181.552-.375 1.147-.733 1.757-1.12.625-.354 1.267-.735 1.949-1.08.686-.341 1.385-.706 2.131-1.01.373-.159.747-.317 1.126-.477.382-.148.777-.277 1.172-.42.398-.13.789-.299 1.204-.401.4-.109.806-.22 1.212-.331l-.001-.001c-.166-.209-.335-.404-.508-.589-.03-.034-.063-.063-.095-.096-.138-.144-.276-.284-.417-.414-.052-.048-.106-.093-.16-.141-.121-.106-.242-.21-.364-.307-.061-.048-.123-.094-.185-.141-.117-.086-.234-.17-.351-.25-.064-.043-.129-.084-.193-.126-.117-.074-.235-.144-.353-.21-.064-.037-.128-.073-.193-.107-.122-.065-.243-.125-.365-.182-.06-.028-.121-.058-.181-.084-.132-.058-.265-.111-.397-.16-.049-.018-.098-.041-.147-.057-.166-.061-.332-.113-.498-.162-.015-.003-.029-.008-.044-.013-.186-.052-.371-.098-.556-.137-.015-.002-.029-.004-.043-.007-.164-.034-.326-.063-.489-.086-.047-.009-.096-.012-.144-.021-.127-.016-.254-.031-.379-.042-.057-.004-.113-.009-.169-.012-.115-.009-.229-.017-.344-.021-.059 0-.115-.002-.173-.003-.11-.002-.219-.002-.327-.001-.056 0-.111.002-.167.004-.108.002-.214.008-.319.014-.051.003-.103.005-.153.008-.111.009-.217.021-.323.031-.042.005-.085.008-.126.013-.125.015-.246.031-.364.049-.017.002-.035.004-.052.008-.442.198-.876.391-1.294.579-1.152.543-2.208 1.068-3.129 1.564-.465.244-.894.482-1.291.703-.404.216-.765.428-1.092.619-.651.389-1.171.693-1.516.913-.349.219-.534.336-.534.336s.141-.175.421-.486c.286-.304.697-.767 1.264-1.3.563-.538 1.256-1.189 2.098-1.873.834-.694 1.814-1.425 2.917-2.179.553-.377 1.146-.735 1.756-1.12.626-.353 1.268-.734 1.95-1.082.687-.339 1.386-.705 2.131-1.008.372-.158.747-.317 1.125-.478.383-.148.777-.278 1.172-.42.399-.13.791-.298 1.204-.402.412-.112.826-.225 1.244-.339.042-.01.085-.021.126-.033-.126-.157-.255-.305-.385-.448-.044-.048-.088-.097-.133-.144-.119-.127-.237-.249-.359-.364-.033-.032-.065-.063-.098-.093-.121-.112-.243-.219-.366-.319-.046-.04-.093-.078-.14-.116-.136-.108-.271-.213-.408-.31-.031-.021-.062-.041-.093-.062-.116-.08-.233-.157-.35-.228-.048-.031-.097-.06-.144-.088-.139-.081-.277-.158-.417-.23-.037-.019-.074-.036-.11-.055-.115-.055-.229-.109-.344-.159-.047-.022-.094-.042-.141-.063-.139-.057-.279-.112-.417-.161-.041-.015-.082-.027-.122-.041-.113-.038-.226-.073-.338-.106-.044-.012-.089-.026-.133-.038-.139-.038-.276-.072-.414-.102-.042-.009-.084-.018-.125-.027-.112-.022-.223-.042-.333-.061-.039-.006-.08-.014-.119-.02-.137-.021-.272-.038-.407-.052-.04-.003-.081-.007-.121-.011-.112-.011-.223-.019-.333-.024-.032-.002-.065-.006-.098-.006-.134-.006-.265-.009-.394-.01h-.113c-.111.001-.221.002-.33.007-.024 0-.049 0-.073.002-.127.005-.251.013-.373.023-.034.003-.068.005-.102.009-.11.009-.219.02-.325.034-.015 0-.028.002-.043.004-.118.015-.232.031-.345.047-.029.005-.058.009-.087.015-.108.018-.216.036-.319.057-.002 0-.005 0-.007.001-.108.021-.21.042-.312.064-.023.005-.046.01-.069.016-.095.021-.188.043-.275.065-.141.063-.285.127-.424.189-1.153.547-2.207 1.069-3.128 1.567-.466.242-.894.482-1.292.703-.402.216-.765.428-1.091.621-.652.388-1.17.69-1.517.91-.348.219-.533.337-.533.337s.139-.175.421-.487c.285-.304.696-.765 1.264-1.297.563-.54 1.256-1.19 2.098-1.874.835-.696 1.815-1.426 2.918-2.181.552-.376 1.146-.733 1.755-1.121.626-.353 1.269-.733 1.951-1.08.685-.34 1.385-.707 2.13-1.01.372-.155.747-.315 1.127-.476.383-.148.778-.278 1.173-.421.397-.13.788-.297 1.202-.401.413-.112.828-.226 1.245-.339.053-.015.107-.029.162-.044l-.002-.002c-1.718-2.035-3.733-2.845-5.552-3.075-.003-.001-.006-.001-.008-.002-.333-.041-.659-.063-.975-.07h-.033c-.102-.002-.201-.002-.302-.002h-.035c-.188.003-.373.011-.554.023-.015.001-.032.001-.047.003-.084.005-.168.014-.25.021-.034.004-.067.007-.1.01-.169.018-.333.038-.491.063-.003 0-.007.001-.009.001-.07.01-.139.022-.208.033-.039.007-.077.013-.114.02-.064.013-.127.024-.189.036-.031.007-.062.012-.092.019-.111.022-.218.046-.321.072-.033.007-.064.015-.096.022-.057.015-.113.028-.167.042-.02.006-.04.011-.06.017-.104.028-.202.056-.293.083-.017.006-.033.011-.049.015-.04.019-.082.038-.123.055-1.152.545-2.207 1.069-3.128 1.565-.465.242-.894.483-1.292.704-.401.217-.763.428-1.09.62-.652.387-1.171.691-1.517.912-.349.219-.534.335-.534.335s.14-.175.422-.486c.285-.305.696-.767 1.264-1.3.563-.539 1.256-1.189 2.097-1.874.835-.694 1.816-1.424 2.918-2.18.553-.376 1.146-.733 1.756-1.119.626-.354 1.268-.734 1.95-1.082.686-.34 1.385-.706 2.132-1.009.37-.157.745-.315 1.125-.476.383-.147.778-.279 1.173-.419.397-.131.789-.299 1.203-.402.412-.112.827-.224 1.244-.338.105-.028.211-.056.316-.084-3.578-4.199-8.425-3.122-10.126-2.566-.003.001-.006.002-.01.003-.059.02-.113.038-.164.056-.009.003-.019.006-.027.01-.046.016-.088.031-.126.045-.011.003-.021.008-.03.011-.035.013-.066.025-.095.037-.01.002-.018.006-.027.01-.025.009-.046.019-.065.026-.009.003-.016.006-.023.009-.031.013-.052.022-.052.022.06-.038.127-.08.2-.126.02-.012.043-.028.063-.041.056-.037.112-.072.173-.112.027-.019.057-.037.084-.056.058-.038.117-.077.179-.12.059-.04.119-.079.182-.121-.121.053-.246.109-.365.163-1.153.545-2.207 1.068-3.128 1.566-.467.242-.895.482-1.293.703-.401.216-.764.429-1.091.619-.652.39-1.17.693-1.517.912-.347.22-.533.337-.533.337s.139-.175.421-.487c.285-.305.696-.768 1.264-1.3.563-.538 1.255-1.188 2.097-1.872.835-.695 1.815-1.426 2.917-2.18.553-.376 1.146-.735 1.757-1.12.625-.353 1.267-.732 1.95-1.081.685-.34 1.385-.704 2.13-1.009.371-.157.748-.315 1.125-.476.385-.147.779-.278 1.175-.419.397-.131.789-.3 1.203-.403.412-.111.826-.224 1.244-.337.209-.056.417-.118.63-.168l.015-.003c-.104-.127-.21-.25-.316-.367-.074-.083-.147-.16-.222-.239-.058-.059-.115-.117-.173-.175-.122-.12-.244-.234-.367-.343-.061-.054-.122-.11-.183-.162-.081-.066-.162-.131-.243-.196-.055-.042-.11-.083-.166-.125-.136-.102-.273-.197-.412-.288-.054-.036-.108-.071-.162-.105-.084-.053-.17-.104-.255-.153-.054-.031-.108-.06-.162-.089-.142-.078-.283-.15-.425-.217-.054-.026-.108-.051-.162-.075-.086-.039-.171-.075-.257-.111l-.165-.063c-.14-.053-.279-.103-.419-.147-.056-.019-.113-.035-.17-.053-.083-.025-.165-.049-.248-.07-.064-.017-.128-.032-.191-.047-.126-.03-.252-.059-.378-.082-.062-.012-.123-.023-.185-.035-.077-.012-.152-.026-.228-.036-.109-.016-.218-.03-.326-.042-.074-.008-.147-.015-.221-.021-.068-.006-.136-.011-.203-.016-.066-.004-.132-.008-.199-.011-.113-.006-.225-.008-.335-.009h-.18c-.074 0-.149.002-.224.005-.053.001-.106.002-.159.005-.112.005-.221.012-.33.021-.049.004-.097.008-.147.013-.082.008-.164.015-.244.026-.038.003-.075.006-.112.012-.107.013-.213.029-.316.044-.04.006-.077.013-.116.019-.088.014-.175.029-.259.044-.021.005-.044.008-.065.012-.099.02-.193.039-.286.059-.031.007-.061.015-.091.021-.086.021-.173.041-.254.061-.006.001-.01.003-.016.004-.333.15-.664.297-.983.439-1.152.545-2.208 1.069-3.129 1.566-.465.241-.894.483-1.292.702-.402.217-.763.427-1.091.621-.651.388-1.17.691-1.515.911-.348.22-.534.336-.534.336s.14-.174.422-.487c.284-.303.696-.766 1.264-1.297.563-.542 1.255-1.191 2.097-1.875.835-.695 1.815-1.424 2.917-2.179.552-.376 1.147-.735 1.757-1.121.625-.354 1.268-.734 1.949-1.08.686-.342 1.385-.707 2.132-1.01.37-.158.746-.317 1.125-.477.384-.148.778-.278 1.172-.419.398-.131.791-.299 1.204-.403.412-.112.826-.226 1.243-.338.21-.055.418-.117.631-.167l.413-.084c-.005-.028-.008-.057-.012-.086-.001 0-.001-.001-.001-.001-.719-.933-1.498-1.636-2.297-2.159-.002 0-.003-.002-.006-.004-.277-.18-.558-.337-.838-.476-.727-.361-1.459-.592-2.169-.727-.014-.003-.027-.005-.04-.006-.184-.036-.364-.063-.545-.084-.013 0-.025-.003-.038-.004-.574-.066-1.126-.079-1.645-.053-.015 0-.029.002-.045.002-.15.008-.297.02-.441.034-.029.004-.059.006-.088.009-.132.013-.262.029-.387.047-.026.003-.053.007-.079.011-.142.021-.28.044-.413.068-.002 0-.005.001-.008.001-.031.013-.063.027-.093.039-.626.28-1.231.549-1.811.809-1.152.544-2.207 1.068-3.129 1.566-.466.243-.893.482-1.292.704-.402.215-.764.426-1.09.618-.652.388-1.171.691-1.516.912-.349.219-.534.338-.534.338s.14-.176.42-.488c.285-.304.696-.767 1.263-1.299.564-.54 1.256-1.188 2.098-1.872.835-.695 1.815-1.425 2.918-2.182.553-.375 1.146-.733 1.756-1.119.626-.354 1.269-.734 1.951-1.082.685-.34 1.385-.707 2.13-1.009.372-.158.746-.317 1.125-.477.384-.146.778-.279 1.173-.419.397-.131.789-.299 1.203-.403.271-.073.544-.148.817-.223-.133-.15-.268-.298-.405-.437-.004-.003-.008-.01-.013-.014-.138-.138-.277-.268-.418-.392l-.007-.007c-.646-.567-1.316-.996-1.991-1.313-2.922-1.373-5.912-.672-7.168-.262-.006.002-.013.005-.018.007-.055.018-.105.035-.152.051-.013.005-.025.009-.038.014-.041.014-.079.028-.114.041-.015.006-.028.012-.04.016-.032.011-.06.022-.086.032-.013.005-.024.01-.036.015-.021.007-.04.016-.055.022-.013.006-.023.009-.033.013-.009.005-.018.009-.025.012-.01.004-.018.008-.018.008.043-.025.093-.059.143-.09.027-.019.054-.035.082-.053-.799.39-1.545.767-2.218 1.13-.465.242-.893.482-1.291.702-.402.217-.764.427-1.091.621-.651.388-1.171.691-1.516.912-.348.219-.533.337-.533.337s.139-.176.42-.486c.286-.305.696-.767 1.264-1.3.563-.538 1.256-1.189 2.097-1.872.834-.695 1.815-1.425 2.918-2.181.552-.375 1.146-.734 1.756-1.12.466-.262.947-.537 1.439-.804-2.104-.665-36.095-13.776-61.087-40.841 0 0 29.439 133.056 37.285 162.239-4.579 9.962-12.002 12.133-18.608 11.259-6.648-.88-12.881-1.761-20.36 3.522-7.479 5.285-13.297 14.532-13.297 14.532 4.434-3.522 5.97-5.62 10.527-6.311 6.787-1.03 8.449 6.017 18.421 2.054 1.739-.69 3.287-1.216 4.684-1.614-.951 1.125-1.857 2.363-2.723 3.748-5.372 8.589-3.678 14.655-3.542 17.35.135 2.696-.656-6.375 6.439-11.913 2.114-1.649 5.8-1.112 9.767.209 3.675 1.221 8.429 2.204 14.855-6.298.744-.982 1.664-2.048 2.667-3.15 5.099-.216 8.541-.993 10.777-2.193 2.57.046 5.458-.046 8.713-.294 3.238-.247 6.446-1.396 14.82 2.063 8.373 3.466 9.851-2.461 15.569-1.514 3.838.637 5.114 2.426 8.817 5.455-.006 0-4.819-7.877-11.075-12.424zm181.096 1.844c-6.685-4.901-12.381-4.297-18.463-3.697-2.233.22-8.413-2.833-15.424-6.061 0 0-45.888-35.486-47.737-58.549-1.812-22.601 19.944-16.325 19.944-16.325s-.08-.147-.227-.42c-1.87-2.114-3.676-4.189-5.37-5.721-5.465-4.944-10.661-1.655-12.38-.286-.606.869-1.16 1.69-1.637 2.443-.295.454-.56.884-.806 1.283-.251.396-.471.767-.667 1.104-.391.675-.704 1.208-.906 1.579-.203.371-.311.567-.311.567s.041-.224.144-.641c.109-.414.255-1.03.506-1.787.244-.762.549-1.687.971-2.718.41-1.039.931-2.184 1.546-3.411.311-.614.664-1.233 1.02-1.884.384-.632.771-1.295 1.206-1.95.442-.652.885-1.332 1.397-1.981.252-.33.507-.662.764-.997.268-.326.553-.644.831-.972.289-.321.553-.669.867-.972.308-.311.619-.624.931-.938.157-.157.312-.318.474-.471l.501-.445c.206-.177.413-.356.619-.536-.013-.022-.025-.044-.039-.067-4.071-1.8-7.641.231-9.225 1.416-.34.423-.667.851-.998 1.254-.418.566-.822 1.115-1.209 1.643-.757 1.068-1.437 2.072-2.013 2.982-.295.452-.559.881-.805 1.28-.252.397-.471.768-.667 1.105-.392.675-.706 1.208-.905 1.578-.204.372-.313.569-.313.569s.041-.224.144-.64c.11-.416.256-1.031.507-1.788.244-.761.55-1.688.971-2.719.41-1.039.931-2.181 1.546-3.411.311-.613.664-1.233 1.02-1.885.385-.63.771-1.294 1.207-1.95.442-.65.885-1.331 1.397-1.98.251-.33.507-.662.763-.996.267-.329.551-.645.832-.973.287-.319.553-.668.866-.972.308-.31.618-.624.931-.937.157-.158.312-.319.473-.473l.503-.445c.11-.097.223-.193.334-.29-3.737-1.851-7.09-.4-8.942.804-.386.472-.747.952-1.118 1.404-.417.567-.821 1.114-1.208 1.64-.756 1.071-1.437 2.073-2.013 2.983-.295.452-.56.883-.805 1.281-.251.396-.472.769-.668 1.105-.391.676-.705 1.207-.905 1.578-.203.371-.312.57-.312.57s.042-.225.144-.642c.109-.414.257-1.028.508-1.786.243-.762.549-1.688.971-2.72.409-1.037.931-2.182 1.547-3.409.308-.613.663-1.234 1.018-1.885.384-.632.77-1.295 1.207-1.951.442-.651.886-1.332 1.397-1.981.251-.329.507-.662.764-.997.267-.328.551-.644.831-.972.289-.32.553-.669.866-.972.309-.311.619-.624.932-.939.157-.156.311-.317.473-.471l.501-.444c.153-.132.307-.266.46-.398-.066-.116-.134-.232-.2-.347-4.482-1.67-8.269 1.168-9.322 2.076-.194.25-.385.499-.58.737-.418.565-.821 1.115-1.21 1.64-.755 1.071-1.437 2.072-2.012 2.982-.296.452-.559.883-.806 1.281-.25.397-.47.767-.667 1.104-.392.676-.706 1.208-.906 1.579-.204.371-.312.569-.312.569s.041-.225.144-.642c.109-.413.257-1.029.507-1.787.244-.763.55-1.688.971-2.719.41-1.038.932-2.181 1.547-3.41.31-.613.664-1.232 1.019-1.885.385-.632.771-1.294 1.207-1.951.443-.65.885-1.33 1.399-1.98.251-.329.506-.66.763-.996.267-.329.552-.645.832-.974.288-.319.552-.667.866-.972.309-.311.619-.623.93-.938.157-.155.312-.317.474-.469l.502-.445c.096-.084.194-.168.291-.253-.054-.091-.108-.182-.163-.273-4.35-1.77-8.085.775-9.371 1.83-.16.207-.32.414-.482.612-.418.568-.821 1.116-1.209 1.641-.757 1.071-1.437 2.072-2.012 2.982-.296.453-.56.883-.807 1.281-.25.396-.47.768-.667 1.104-.391.677-.704 1.208-.905 1.58-.203.369-.311.569-.311.569s.041-.225.144-.643c.109-.413.256-1.029.507-1.788.244-.761.55-1.687.972-2.717.409-1.039.929-2.182 1.545-3.409.31-.613.664-1.234 1.019-1.886.385-.632.771-1.294 1.206-1.951.442-.65.885-1.331 1.397-1.98.252-.329.507-.663.764-.997.268-.328.553-.644.833-.972.288-.32.552-.668.866-.973.308-.311.618-.622.93-.938.158-.156.312-.317.475-.47l.483-.428c-3.819-1.708-7.198-.039-8.921 1.158-.237.304-.467.604-.704.891-.418.567-.822 1.116-1.209 1.641-.755 1.07-1.437 2.072-2.012 2.983-.294.452-.559.883-.806 1.281-.251.397-.47.767-.668 1.105-.389.675-.704 1.207-.905 1.578-.203.372-.311.57-.311.57s.041-.226.146-.643c.109-.413.255-1.027.507-1.787.243-.762.549-1.687.969-2.718.41-1.037.931-2.182 1.547-3.41.31-.613.665-1.233 1.02-1.885.383-.631.769-1.295 1.206-1.95.443-.652.886-1.331 1.397-1.982.251-.328.506-.661.764-.997.267-.327.552-.645.832-.973.287-.318.552-.667.866-.971.307-.311.618-.624.931-.938.156-.156.31-.317.473-.472l.091-.081c-5.002-2.033-9.193 1.637-9.78 2.187-.253.342-.502.681-.743 1.008-.756 1.07-1.437 2.071-2.013 2.982-.295.453-.56.882-.806 1.282-.252.396-.471.768-.667 1.104-.392.675-.705 1.208-.906 1.579-.203.37-.311.568-.311.568s.041-.225.144-.643c.109-.412.256-1.028.507-1.788.244-.761.55-1.686.972-2.717.409-1.038.93-2.182 1.545-3.412.311-.613.665-1.232 1.02-1.883.384-.632.771-1.295 1.207-1.951.443-.65.885-1.332 1.397-1.981.252-.33.507-.661.764-.997.267-.328.552-.645.832-.972.287-.32.552-.669.866-.972.199-.201.399-.403.6-.605-3.448-1.516-6.533-.288-8.355.843-.411.558-.809 1.098-1.189 1.615-.756 1.071-1.437 2.073-2.014 2.984-.295.45-.558.882-.805 1.28-.251.395-.47.767-.667 1.105-.392.675-.705 1.208-.906 1.578-.203.371-.312.568-.312.568s.042-.225.145-.642c.109-.412.255-1.029.506-1.787.244-.76.55-1.688.97-2.717.41-1.039.932-2.182 1.547-3.41.31-.613.664-1.234 1.02-1.884.385-.633.771-1.297 1.207-1.952.441-.651.884-1.331 1.397-1.981.25-.328.505-.661.763-.997.267-.326.552-.644.831-.973.113-.125.223-.255.333-.386-.136-.137-.271-.278-.405-.413-4.123-1.149-7.544 1.364-8.597 2.26-.065.095-.135.193-.2.287-.094.136-.186.271-.276.404-.066.098-.133.197-.197.293-.093.138-.183.272-.271.406-.053.081-.106.162-.159.24-.138.213-.273.421-.401.625-.295.45-.559.882-.805 1.28-.251.396-.471.769-.668 1.104-.39.676-.704 1.209-.905 1.579-.203.372-.311.569-.311.569s.041-.225.145-.643c.108-.412.256-1.029.506-1.787.244-.761.55-1.687.972-2.717.409-1.039.93-2.182 1.546-3.409.31-.615.664-1.234 1.019-1.887.383-.629.77-1.293 1.206-1.949.443-.651.886-1.331 1.398-1.982.067-.087.135-.175.203-.263-3.398-1.405-6.477.055-8.36 1.408-.272.42-.52.821-.75 1.194-.252.396-.471.767-.668 1.105-.391.675-.705 1.208-.905 1.579-.203.371-.312.568-.312.568s.042-.224.144-.642c.11-.414.257-1.029.507-1.788.042-.13.088-.27.133-.41-.043.048-.068.076-.068.076.024-.029.052-.068.077-.102.001 0 .001 0 .001-.002.038-.117.079-.236.12-.359.03-.092.062-.185.095-.28.034-.099.069-.196.104-.298.047-.132.096-.268.147-.404.03-.082.059-.161.09-.244.086-.227.176-.458.273-.695.408-1.038.93-2.182 1.545-3.41.31-.613.664-1.232 1.019-1.884.135-.224.274-.452.415-.681.002-.002.002-.004.003-.007-3.72-1.646-6.163.39-7.007 1.296-.069.122-.132.233-.185.333-.203.37-.312.566-.312.566s.042-.223.145-.641c.109-.413.256-1.028.506-1.786.244-.762.551-1.689.972-2.719.099-.249.204-.505.314-.767.105-.247.217-.499.333-.756.005-.012.009-.023.015-.034-37.943-28.676-69.933-21.753-76.2-1.556-4.427 14.265 12.551 44.045 12.551 44.045s86.068 85.551 122.447 120.504c-4.703 4.712-10.447 5.679-15.687 4.912-7.164-1.049-13.878-2.09-22.037 3.338-8.158 5.426-14.586 15.057-14.586 15.057 4.843-3.629 6.534-5.809 11.465-6.453 7.344-.959 9.026 6.49 19.855 2.499 1.889-.696 3.567-1.22 5.081-1.614-1.044 1.167-2.042 2.457-2.998 3.896-5.936 8.947-4.203 15.365-4.101 18.204.104 2.841-.606-6.724 7.142-12.427 2.308-1.697 6.279-1.063 10.541.399 3.946 1.354 9.064 2.476 16.136-6.359.781-.975 1.734-2.024 2.777-3.11 7.089.031 11.623-.765 14.343-2.167 2.119-.029 4.407-.112 6.89-.255 3.501-.201 6.982-1.354 15.967 2.443 8.984 3.803 10.673-2.412 16.832-1.308 4.133.739 5.481 2.646 9.431 5.902-.014 0-5.084-8.379-11.764-13.283zM282.262 495.175c18.921 11.682 41.202 22.981 63.583 33.207 26.426 12.075 52.984 22.656 74.298 30.604 5.802 2.084 11.238 3.993 16.173 5.696l-125.454-80.794c-3.57 9.555-12.267 18.304-28.6 11.287z"/>
    <path d="m301.686 516.571-.267 3.871c-.038 1.169-.132 2.302-.251 3.759-.029.353-.06.73-.092 1.13 1.747-.37 7.077-1.63 16.238-.731-.883-.382-1.771-.808-2.66-1.282-1.263-.673-2.634-1.545-4.078-2.487-2.995-1.398-5.961-2.818-8.89-4.26zm-29.408-130.452c-2.284.024-5.757.249-9.108.782-6.488 1.033-13.777 3.331-19.679 8.314-1.914 1.851-4.22 4.398-6.413 7.643-.029.045-.058.091-.087.135l.018.05-.172.188c-.06.09-.119.183-.179.274-3.867 6.897-8.559 19.246-6.695 33.362.71 4.313 1.993 8.93 3.992 13.853 2.643 5.804 6.637 11.697 12.43 17.465 5.987 5.958 13.451 11.952 21.972 17.894.283.136.602.286.945.444 1.746.798 4.24 1.83 7.146 2.717 9.864 3.009 24.456 4.319 30.498-10.997.058-.149.119-.294.176-.446-.029-.024-.059-.046-.089-.071 0 0 .033.02.095.056.013-.034.027-.067.041-.103.505.281 1.017.548 1.526.82 1.091.581 2.188 1.147 3.3 1.686v.001c8.927 3.847 27.511 9.065 35.51-9.429.138-.321.271-.652.403-.985.04-.102.083-.2.123-.304l5.113 3.361c3.119 1.985 6.474 4.127 10.028 6.425 2.556 1.645 5.219 3.359 7.975 5.133 2.748 1.787 5.588 3.634 8.509 5.534 5.836 3.807 12.001 7.801 18.337 12.005 3.172 2.094 6.397 4.224 9.662 6.379 3.267 2.152 6.57 4.336 9.885 6.563 6.638 4.439 13.381 8.949 20.124 13.457 5.368 3.636 10.734 7.27 16.048 10.868l57.742 37.187c-.022.01-.045.022-.068.035l13.537 8.719c2.769 1.551 11.732 7.246 19.43 8.735 17.178 3.324 28.969 4.831 32.467 4.573 5.453-.4-241.913-184.304-295.208-210.181-1.135-.551-5.799-2.181-9.334-2.142z"/>
    <path d="m383.908 499.946-32.871-21.169c-3.562 7.53-10.539 13.716-22.623 10.709l118.065 76.035c11.49 5.175 33.751 13.345 75.939 23.706l-138.544-89.224.034-.057zm-110.592 69.41c.195.073.391.145.587.213.847-4.06 1.099-8.293.747-13-.391-2.992-1.065-6.006-1.848-8.98l-.042-.017c-6.644-2.81-12.694-8.042-17.441-14.992.351 6.287-.041 12.856-2.583 18.692-.178.408-.367.815-.565 1.215 4.247 5.254 11.997 13.474 21.145 16.869zm2.937 2.414c.333.361.685.72 1.047 1.075 1.034 1.01 2.168 1.986 3.311 2.896 1.496 1.188 3.006 2.262 4.327 3.147-.911-2.284-2.06-5.58-3.406-10.292-1.93-6.749-2.362-13.73-2.453-15.849-.179-.173-.407-.395-.667-.647-.238-.229-.48-.462-.729-.7-.317-.304-.642-.615-.967-.927.321 2.021.553 3.961.694 5.83.389 5.134.099 9.756-.866 14.21-.091.419-.188.838-.291 1.257zm1.92-44.647c.25 6.011-.27 12.225-2.742 17.846-.021.048-.042.097-.064.145 1.061 1.127 2.617 2.622 4.049 3.993.001-.004.001-.01.001-.017.122-3.797 1.157-7.588 3.034-11.109.431-.922.921-1.826 1.481-2.704.402-.634.858-1.24 1.36-1.818-1.867-1.428-4.709-3.629-7.119-6.336zm-28.39 23.504c.047.028.096.057.143.084.215-.457.414-.92.6-1.389 2.569-6.47 2.386-14.031 1.679-20.917-.016-.01-.031-.02-.046-.031-6.693-4.184-11.237-10.695-14.242-16.765-.205 2.331-.596 4.684-1.173 7.03-.893 4.452-2.417 8.895-5.007 12.847.254.596.576 1.234.953 1.902 3.173 5.613 10.428 13.373 17.093 17.239zm25.337-27.519c-.146-.084-.292-.169-.438-.257-5.49-3.323-10.364-8.775-13.943-15.506-.23 3.305-.817 6.576-1.749 9.773-.843 3.337-2.085 6.574-3.916 9.544-.016.026-.033.052-.049.077 4.361 7.894 10.581 14.145 17.32 17.447.102.05.202.106.304.153.013-.027.023-.056.036-.083.111-.237.21-.478.313-.717.135-.315.267-.632.389-.954.313-.817.591-1.644.823-2.488.859-3.11 1.2-6.378 1.242-9.649.032-2.468-.106-4.935-.332-7.34zm12.125 8.23c.313-.267.632-.519.954-.769.676-.52 1.373-1.007 2.086-1.447 2.468-1.521 5.156-2.732 8-3.601.046-.571.089-1.093.129-1.574.215-2.628.333-4.068.209-6.592-2.688-1.622-5.246-3.719-7.591-6.209-2.679-1.413-5.314-2.844-7.9-4.291-.771 5.556-2.2 10.143-4.374 14.045-.247.442-.504.874-.77 1.297.11.182.227.364.347.542.363.508.725 1 1.087 1.476 2.413 2.984 5.694 5.494 7.668 7.003.052.041.104.081.155.12zm-15.3-14.057c.909.797 1.843 1.535 2.802 2.193.34.233 1.115.726 1.158.751.076-.125.801-1.412 1.031-1.873.008-.016.016-.032.023-.048 1.178-2.359 2.085-4.999 2.745-7.986.342-1.549.618-3.189.828-4.935-.12-.069-.239-.137-.358-.206-.452-.259-.901-.519-1.349-.778-5.184-3.006-10.141-6.083-14.813-9.222-.868 2.109-1.878 4.055-3.021 5.83-.023.036-.045.074-.069.112 2.62 6.57 6.487 12.19 11.023 16.162zm-33.668-11.834c-.016.023 0 0-.016.024 3.273 8.502 7.971 15.047 13.586 19.203.257.191.514.38.774.562.007.004.014.01.021.015.096-.153.181-.312.273-.466.146-.244.295-.487.433-.736 1.333-2.402 2.282-4.996 2.96-7.677 1.215-4.796 1.561-9.868 1.649-14.618-6.606-4.331-10.853-11.104-13.438-16.75-.687 6.935-2.207 14.434-6.242 20.443zm20.684-6.494c1.018-1.637 1.915-3.437 2.689-5.386-5.706-3.944-10.951-7.984-15.618-12.112 2.215 5.5 6.239 12.906 12.929 17.498zm-32.26 28.373c.948.743 1.925 1.417 2.936 2.016.032.019.062.04.094.058 2.176-3.461 3.49-7.366 4.287-11.305.853-4.222 1.114-8.487 1.182-12.302-5.126-3.62-9.311-8.778-12.892-15.928-.467 3.584-1.393 7.182-2.81 10.92-1.196 3.708-2.776 7.097-4.712 10.051.843 1.885 1.73 3.635 2.657 5.27 2.702 4.766 5.769 8.485 9.258 11.22zm5.154-61.174c-1.749 5.83-4.415 12.509-9.019 17.691.003.161 3.432 8.632 8.343 14.466.797.946 1.656 1.794 2.528 2.595 1.821 1.579 2.939 1.997 3.065 2.077.071-.146 2.32-5.167 2.71-6.848 1.583-4.72 2.232-9.805 2.545-14.645-3.151-3.263-5.69-7.271-7.605-11.98-.902-1.115-1.76-2.233-2.567-3.356zm-30.319 20.008c.002.013.005.028.008.041.052.24.11.476.166.712.041.172.078.346.12.516.197.792.418 1.57.655 2.334.007.018.012.038.018.058.368 1.173.779 2.31 1.222 3.407v.001c0 .001.001.001.001.002.252.625.515 1.236.785 1.834.271.596.549 1.18.832 1.75.038.075.074.153.112.229.016.031.031.06.047.09.999 1.975 2.058 3.765 3.08 5.331.612.938 1.208 1.795 1.77 2.565.47.642.916 1.229 1.322 1.743.474.597.896 1.105 1.248 1.517 1.632-2.989 2.955-5.827 3.999-8.581 2.069-5.455 3.023-10.564 2.985-15.784-.173-.178-.341-.366-.51-.55-.071-.076-.142-.15-.211-.228-4.68-4.603-7.411-10.69-9.173-16.619-.151-.473-.296-.949-.436-1.43-.029-.104-.063-.207-.092-.31-.809 3.38-1.75 6.655-3.33 10.141-.351.775-.733 1.559-1.153 2.358-1.049 1.998-2.329 4.083-3.928 6.308.004.03.01.061.014.09.123.838.273 1.662.449 2.475zm20.484-45.584c-2.327 6.59-5.966 12.652-11.026 18.37.449 2.17.993 4.472 1.685 6.789 1.419 4.744 3.486 9.55 6.734 13.453.516.619 1.052 1.224 1.63 1.793.002-.002.004-.006.007-.009.097-.114.19-.234.286-.351 3.735-4.515 6.648-10.547 8.47-17.497-2.766-4.353-4.789-8.776-5.948-13.258-.836-3.232-1.438-6.326-1.838-9.29zm-26.503 32.348c1.556 3.45 3.151 6.192 4.141 7.775 5.14-7.531 6.462-13.473 7.979-20.282.112-.505.229-1.021.345-1.536-6.647-8.424-7.779-15.929-8.52-22.617-.634 2.003-1.376 3.861-2.324 5.804-2.413 5.434-4.845 8.769-6.052 10.243-.14 1.894-.085 3.792.115 5.667.583 5.481 2.416 10.738 4.316 14.946zm14.031-16.643c5.969-6.935 9.764-14.385 11.578-22.718-.011-.093-.023-.188-.034-.282-1.656-2.728-5.249-9.799-6.114-20.948-5.063 10.501-11.308 15.591-13.56 17.184.362 5.108 1.629 12.509 2.127 14.455.991 3.88 2.702 7.937 6.003 12.309zm-22.231-12.937c.514 1.663 2.488 5.917 2.519 5.968 1.468-1.993 3.083-4.725 4.607-8.096 1.145-2.531 2.237-5.426 3.178-8.641.293-1.001.573-2.032.833-3.094-.027-.042-.059-.088-.088-.133-.874-1.325-2.639-4.417-4.241-9.762-.431-1.393-.836-2.926-1.189-4.599-.472-2.131-.897-4.512-1.24-7.166-1.224 2.496-2.593 4.835-4.097 7.013-1.004 2.276-1.854 4.86-2.275 7.644-.184 1.209-.287 2.457-.285 3.732.003 3.284.202 6.194.524 8.753.425 3.384 1.065 6.157 1.754 8.381zm20.833-58.799c-5.18 10.745-11.596 15.827-13.708 17.291-.115 11.318 2.851 19.154 4.826 23.101.38.76.725 1.376 1.003 1.846.175-.133.371-.285.583-.456 2.974-2.387 9.365-8.562 13.769-20.266-1.427-2.205-5.538-9.49-6.473-21.516zm23.108 4.849c-5.18 10.738-11.592 15.817-13.703 17.281-.102 9.838 2.104 17.007 3.981 21.308.813-12.061 5.425-21.302 11.547-28.03-.928-3.328-1.541-6.854-1.825-10.559zm2.586-5.675c-.054 4.951.447 9.615 1.5 13.925 5.403-5.133 11.671-8.531 17.463-10.37.486-.155.967-.298 1.443-.437-1.45-1.922-5.717-8.504-6.693-20.424-5.181 10.754-11.597 15.839-13.713 17.306zm-49.683 5.939c-.433 2.968-.769 6.106-.888 9.19-.272 7.099.641 12.075 1.381 14.851.016.252 3.579-5.098 4.871-7.812.714-1.5 1.38-3.052 1.986-4.664-1.3-2.008-4.824-8.229-6.15-18.403-.424 2.081-.845 4.401-1.2 6.838zm3.46-15.618c-.137 13.505 4.109 22.058 5.829 24.955 2.627-1.984 9.623-8.182 14.341-20.723-1.423-2.197-5.533-9.478-6.469-21.514-5.176 10.738-11.583 15.814-13.701 17.282zm23.112 4.838c-.14 13.564 4.104 22.077 5.825 24.958 2.624-1.981 9.625-8.179 14.345-20.727-1.423-2.197-5.533-9.478-6.468-21.514-5.177 10.738-11.583 15.814-13.702 17.283zm62.06 5.678s-1.328-10.551-1.628-14.394c-3.834 8.267-8.445 12.966-11.511 15.394 8.078-1.614 13.139-1 13.139-1zm41.212-89.714c-.001-.013-.001-.011 0 0zm.062-.076c-.005.014-.044.042-.062.076-.011.021-.015.042.009.066.037-.038.072-.073.109-.11-.019-.011-.038-.022-.056-.032z"/>
    <path d="M334.029 316.807c-2.311-7.149-6.162-12.466-11.383-16.455-.898-.686-5.629-3.971-8.522-5.554-.037.037-.072.072-.109.11.078.081.205.304.265.555.146.612.234 1.665-.259 3.311-.376 1.253-1.14 2.957-2.26 4.482-.556.765-1.175 1.561-1.881 2.35-.71.783-1.496 1.565-2.349 2.341-.85.78-1.778 1.538-2.774 2.267-.497.362-1.037.743-1.543 1.07l-.388.255-.097.064-.12.074-.223.132c-.295.183-.6.343-.908.5-1.239.618-2.552 1.042-3.88 1.393-1.329.329-2.68.587-4.03.817-2.694.459-5.425.855-7.932 1.793-.624.237-1.223.522-1.808.832-.574.326-1.127.687-1.641 1.105-.129.103-.249.219-.375.328-.13.107-.25.217-.356.328-.113.114-.223.214-.341.336l-.367.426c-.412.486-.791 1.085-.997 1.61-.103.267-.166.521-.173.735-.011.218.026.395.107.581.161.372.604.77 1.144 1.082 1.1.632 2.471 1.017 3.817 1.33 2.722.622 5.515.959 8.209 1.283.528.062 1.051.121 1.572.18 2.543-.292 5.506-.464 8.554-.284 6.444.379 13.255 2.084 17.216 3.419 2.132.673 4.361 1.776 4.361 1.776-3.742-3.015-9.839-6.227-19.768-8.632-4.555-1.103-9.916-2.038-16.226-2.704-.416-.043-.775-.551-.136-.422 2.074.419 4.319.224 5.76.221 13.017-.029 25.68 4.199 32.053 10.859 2.675 2.796 4.968 7.208 4.986 10.725.001.002 6.718-12.502 2.802-24.619zm-19.888-10.97c.393-.645.781-1.591.9-2.962 2.772 1.253 5.128 2.629 6.463 5.924-1.492-1.134-3.998-3.077-7.363-2.962z"/>
    <path d="M314.005 294.842c.018-.034.057-.063.062-.076.018.01.037.021.056.032.669-.68 1.312-1.333 1.947-1.983.646-.658.696-1.51.229-2.254-.684-1.087-1.388-2.215-2.256-3.058-10.045-9.788-21.519-15.487-34.167-17.63-3.006-.509-42.157-6.219-48.847-13.42-.272-.293.149 4.459 1.77 9.09.343.98.762 1.96 1.198 2.879-.223.088-.437.177-.637.272-8.402 4.016-16.104 10.175-22.781 18.614l.076-.166s-9.142 8.093-20.468 30.979c-8.141 16.452-11.332 16.413-11.332 16.413s5.724.547 11.125-2.94c.506-1.236 1.004-2.399 1.475-3.459 1.624-3.662 2.915-6.124 3.042-6.365l2.723-5.16-.008.349-.099 4.367-.027 1.194c-.316 13.961 4.067 22.784 5.821 25.738 2.679-2.024 9.901-8.418 14.618-21.459l.347-.96 2.518-6.96-.159 7.049-.032 1.431c-.318 14.024 4.063 22.804 5.817 25.741 1.347-1.017 3.846-3.144 6.599-6.669 2.56-3.277 5.337-7.767 7.61-13.695.139-.362.278-.724.413-1.097l.339-.939 2.526-6.982-.193 8.481c-.316 14.022 4.064 22.803 5.818 25.739 2.677-2.02 9.902-8.413 14.622-21.46l2.866-7.922-.192 8.482c-.245 10.854 2.325 18.57 4.313 22.864.003-17.573 4.364-26.188 10.514-29.696 2.449-1.397 5.477-2.333 5.485-2.336.042-.007.536-.142 1.375-.332-1.264-.143-2.543-.318-3.837-.561-.723-.143-1.45-.312-2.183-.53-.731-.221-1.469-.484-2.208-.886-.366-.204-.736-.439-1.091-.751-.353-.31-.696-.705-.946-1.204-.251-.496-.383-1.093-.369-1.645.007-.556.132-1.058.292-1.507.333-.907.786-1.597 1.298-2.29l.333-.456c.128-.16.276-.329.415-.492.281-.345.571-.607.87-.9.605-.554 1.258-1.039 1.933-1.473.681-.417 1.384-.777 2.095-1.084 2.857-1.213 5.749-1.649 8.414-2.127 2.668-.459 5.185-.92 7.265-1.875.26-.118.516-.238.757-.375l.184-.099.046-.024c-.014.011.025-.014.035-.019l.101-.059.397-.237c.544-.315 1.01-.619 1.503-.924.978-.622 1.89-1.274 2.756-1.915.862-.647 1.662-1.308 2.39-1.976.733-.662 1.413-1.314 2.019-1.964 1.206-1.304 3.653-5.521 3.438-7.257-.027-.023-.023-.045-.013-.066zm-22.4 4.074c-2.984-1.371-5.404-3.156-5.446-3.174-.02-.008-.817 2.309 3.336 4.689 2.378 1.364 6.335 2.445 6.335 2.445s-1.563 3.532-5.076 4.498c-3.324.915-7.575-.683-8.714-4.498-.598-2.003-.511-5.692 1.123-7.785-4.874-2.749-11.181-1.172-15.346-.591.018-.007 13.814-5.56 24.152-.13 2.988 1.257 4.467 1.497 7.601 2.02 3.066.512 7.861-.004 10.61-1.642-4.755 7.342-16.118 5.297-18.575 4.168z"/>
    <path d="M314.005 294.842c.001.011.004.03.009.066.037-.038.072-.073.109-.11-.019-.011-.038-.022-.056-.032-.005.014-.044.043-.062.076z"/>
    <path d="M314.005 294.842c.003.021.009.066.009.066-.005-.036-.007-.055-.009-.066z"/>
    <path d="M314.014 294.908s-.006-.045-.009-.066c-.01.021-.014.043.009.066zm-126.553 54.538c-1.347 8.312-1.304 14.185-.94 17.943.145 1.49.339 2.649.518 3.494.202-.159.422-.339.657-.536 3.143-2.644 9.101-8.768 13.274-19.862-1.454-2.244-5.687-9.752-6.521-22.167-2.374 5.237-5.776 13.645-6.988 21.128zM203.9 351.1c-.122 11.952 3.193 20.02 5.149 23.726.252.48.483.889.68 1.221.304-.229.669-.517 1.078-.862 3.144-2.642 9.102-8.767 13.274-19.86-1.428-2.205-5.538-9.489-6.474-21.516-5.179 10.745-11.595 15.827-13.707 17.291zm23.113 4.838c-.122 11.952 3.192 20.02 5.148 23.726.253.479.484.889.681 1.221.304-.229.668-.517 1.078-.861 3.143-2.642 9.101-8.767 13.274-19.86-1.428-2.204-5.538-9.49-6.474-21.516-5.179 10.745-11.595 15.826-13.707 17.29zm23.112 4.838c-.137 13.641 4.265 21.33 5.962 23.78 2.483-1.581 9.464-6.936 14.218-19.556-1.427-2.205-5.537-9.489-6.473-21.515-5.18 10.747-11.595 15.828-13.707 17.291zm208.108 226.603c1.203 2.68 1.956 5.543 2.077 8.343 30.554 16.938 129.813 69.206 143.278 74.239 14.016 5.238 27.727-3.754 27.727-3.754s-115.467-52.498-173.082-78.828zm.282 16.423c24.676 16.442 94.414 62.251 111.708 72.426 11.229 6.606 28.583-.958 28.583-.958l-138.642-76.41c-.247 1.734-.78 3.403-1.649 4.942zm-3.593 4.115c-.68.526-1.381.992-2.096 1.414 21.2 17.379 74.293 56.083 91.091 70.089 7.7 6.42 22.691 1.847 22.691 1.847l-109.615-75.304c-.6.692-1.286 1.348-2.071 1.954zm-11.032 4.35c20.613 19.665 64.943 59.448 73.96 66.733 7.296 5.896 21.611 4.163 21.611 4.163l-89.391-72.478c-1.987.803-4.061 1.297-6.18 1.582zm-16.155-.348c-.55-.094-1.098-.193-1.645-.296 10.747 12.767 38.882 45.966 47.342 53.677 15.184 13.84 38.021 15.989 38.021 15.989l-71.895-68.705c-3.99.08-8.026-.342-11.823-.665zm-48.673-59.333c21.593 18.297 36.826 49.204 36.826 49.204s29.597 8.434 35.538-3.321c6.738-13.332-21.077-24.681-21.077-24.681l-51.287-21.202z"/>
  </g>
  <g fill="#ECBF69">
    <path d="M1193.286 580.891c.797-.546 1.645-1.15 2.509-1.802 9.603-4.467 27.077-14.182 47.771-33.049 26.469-24.13 54.474-65.878 54.948-125.32 0 0 13.805 4.026 19.551 26.7 6.13 24.198 4.526 57.293-57.659 91.308 0 0-35.021 32.302-67.12 42.163zm-25.297 139.192c6.259-4.546 11.525-3.881 17.148-3.213 4.781.565 10.044-.764 13.818-6.466 27.099-62.643-4.035-50.128-4.035-50.128 4.282-8.142 12.243-4.571 12.243-4.571.651.388 1.171.691 1.517.912.347.219.532.336.532.336s-.139-.173-.42-.486c-.286-.305-.696-.767-1.263-1.3-.564-.539-1.256-1.189-2.098-1.873-.834-.695-1.815-1.426-2.918-2.181-.552-.375-1.146-.733-1.756-1.12-.626-.354-1.268-.735-1.95-1.08-.686-.341-1.384-.706-2.131-1.01-.37-.159-.746-.317-1.125-.477-.383-.148-.777-.277-1.173-.42-.398-.13-.789-.299-1.204-.401-.4-.109-.806-.22-1.212-.331v-.001c.167-.209.337-.404.509-.589.031-.034.063-.063.095-.096.137-.144.276-.284.417-.414.053-.048.107-.093.161-.141.12-.106.241-.21.363-.307.061-.048.124-.094.185-.141.117-.086.233-.17.352-.25.064-.043.129-.084.194-.126.117-.074.234-.144.353-.21.063-.037.127-.073.192-.107.122-.065.243-.125.366-.182.059-.028.12-.058.18-.084.132-.058.264-.111.397-.16.049-.018.099-.041.147-.057.167-.061.333-.113.498-.162.014-.003.03-.008.044-.013.187-.052.372-.098.557-.137.014-.002.028-.004.043-.007.164-.034.327-.063.489-.086.047-.009.096-.012.144-.021.128-.016.253-.031.379-.042.058-.004.113-.009.169-.012.115-.009.229-.017.343-.021.059 0 .116-.002.174-.003.11-.002.219-.002.326-.001.057 0 .112.002.169.004.107.002.213.008.318.014.051.003.103.005.155.008.109.009.216.021.322.031.041.005.085.008.127.013.124.015.244.031.363.049.018.002.035.004.052.008.442.198.876.391 1.295.579 1.153.543 2.208 1.068 3.128 1.564.465.244.894.482 1.291.703.404.216.765.428 1.092.619.652.389 1.17.693 1.516.913.349.219.534.336.534.336s-.14-.175-.421-.486c-.286-.304-.697-.767-1.264-1.3-.563-.538-1.255-1.189-2.097-1.873-.835-.694-1.815-1.425-2.917-2.179-.553-.377-1.146-.735-1.756-1.12-.626-.353-1.27-.734-1.951-1.082-.685-.339-1.384-.705-2.13-1.008-.371-.158-.747-.317-1.125-.478-.383-.148-.777-.278-1.173-.42-.397-.13-.789-.298-1.203-.402-.413-.112-.827-.225-1.244-.339-.042-.01-.085-.021-.127-.033.127-.157.256-.305.385-.448.043-.048.088-.097.132-.144.118-.127.238-.249.359-.364.033-.032.065-.063.099-.093.121-.112.242-.219.364-.319.047-.04.093-.078.141-.116.136-.108.271-.213.408-.31.031-.021.062-.041.093-.062.116-.08.233-.157.351-.228.049-.031.096-.06.145-.088.138-.081.276-.158.415-.23.037-.019.074-.036.111-.055.113-.055.229-.109.342-.159.047-.022.095-.042.142-.063.139-.057.278-.112.418-.161.04-.015.08-.027.121-.041.112-.038.226-.073.337-.106.045-.012.09-.026.134-.038.138-.038.277-.072.414-.102.042-.009.083-.018.125-.027.112-.022.223-.042.333-.061.04-.006.08-.014.12-.02.137-.021.272-.038.407-.052.041-.003.08-.007.12-.011.112-.011.223-.019.333-.024.034-.002.066-.006.098-.006.134-.006.265-.009.394-.01h.113c.11.001.222.002.33.007.023 0 .048 0 .073.002.126.005.25.013.372.023.034.003.068.005.101.009.111.009.22.02.326.034.014 0 .029.002.043.004.118.015.233.031.344.047.029.005.059.009.088.015.109.018.216.036.32.057.001 0 .005 0 .007.001.107.021.209.042.31.064.024.005.047.01.07.016.095.021.188.043.275.065.141.063.285.127.424.189 1.153.547 2.207 1.069 3.127 1.567.467.242.895.482 1.293.703.402.216.764.428 1.091.621.652.388 1.17.69 1.517.91.347.219.533.337.533.337s-.139-.175-.421-.487c-.285-.304-.695-.765-1.263-1.297-.563-.54-1.256-1.19-2.098-1.874-.834-.696-1.815-1.426-2.917-2.181-.552-.376-1.146-.733-1.756-1.121-.626-.353-1.268-.733-1.951-1.08-.686-.34-1.385-.707-2.13-1.01-.372-.155-.747-.315-1.125-.476-.383-.148-.779-.278-1.174-.421-.397-.13-.788-.297-1.202-.401-.412-.112-.828-.226-1.244-.339-.053-.015-.107-.029-.162-.044l.002-.002c1.718-2.035 3.733-2.845 5.553-3.075.002-.001.005-.001.008-.002.332-.041.658-.063.975-.07h.032c.103-.002.203-.002.302-.002h.036c.189.003.373.011.553.023.016.001.033.001.049.003.084.005.167.014.25.021.033.004.066.007.1.01.169.018.333.038.492.063.002 0 .005.001.008.001.071.01.139.022.208.033.038.007.076.013.113.02.065.013.128.024.189.036.032.007.062.012.092.019.111.022.219.046.321.072.032.007.065.015.096.022.058.015.112.028.166.042.021.006.041.011.061.017.104.028.202.056.294.083.018.006.033.011.049.015.041.019.082.038.123.055 1.152.545 2.207 1.069 3.127 1.565.466.242.895.483 1.292.704.402.217.763.428 1.09.62.652.387 1.172.691 1.517.912.349.219.534.335.534.335s-.14-.175-.421-.486c-.286-.305-.697-.767-1.264-1.3-.563-.539-1.255-1.189-2.097-1.874-.835-.694-1.816-1.424-2.918-2.18-.552-.376-1.146-.733-1.756-1.119-.626-.354-1.267-.734-1.95-1.082-.686-.34-1.385-.706-2.131-1.009-.371-.157-.746-.315-1.125-.476-.383-.147-.778-.279-1.172-.419-.398-.131-.791-.299-1.204-.402-.412-.112-.827-.224-1.244-.338-.105-.028-.211-.056-.316-.084 3.577-4.199 8.425-3.122 10.125-2.566.003.001.007.002.01.003.059.02.113.038.164.056.009.003.018.006.027.01.046.016.087.031.126.045.011.003.021.008.03.011.035.013.067.025.096.037.009.002.018.006.026.01.025.009.047.019.065.026.009.003.015.006.022.009.032.013.053.022.053.022-.061-.038-.129-.08-.201-.126-.02-.012-.043-.028-.063-.041-.056-.037-.112-.072-.175-.112-.026-.019-.055-.037-.083-.056-.058-.038-.117-.077-.179-.12-.06-.04-.119-.079-.183-.121.122.053.247.109.366.163 1.153.545 2.207 1.068 3.129 1.566.466.242.894.482 1.291.703.402.216.765.429 1.092.619.651.39 1.17.693 1.517.912.347.22.532.337.532.337s-.138-.175-.421-.487c-.284-.305-.696-.768-1.263-1.3-.563-.538-1.255-1.188-2.097-1.872-.835-.695-1.815-1.426-2.917-2.18-.553-.376-1.147-.735-1.756-1.12-.626-.353-1.269-.732-1.95-1.081-.686-.34-1.385-.704-2.13-1.009-.373-.157-.747-.315-1.125-.476-.384-.147-.778-.278-1.173-.419-.398-.131-.79-.3-1.204-.403-.412-.111-.826-.224-1.244-.337-.209-.056-.417-.118-.629-.168l-.015-.003c.104-.127.209-.25.315-.367.073-.083.147-.16.222-.239.058-.059.115-.117.174-.175.121-.12.243-.234.366-.343.061-.054.122-.11.183-.162.081-.066.162-.131.244-.196.054-.042.11-.083.165-.125.137-.102.273-.197.412-.288.054-.036.108-.071.162-.105.084-.053.169-.104.255-.153.053-.031.108-.06.162-.089.142-.078.283-.15.426-.217.054-.026.107-.051.161-.075.086-.039.171-.075.257-.111.055-.021.109-.042.165-.063.14-.053.279-.103.419-.147.056-.019.114-.035.17-.053.083-.025.166-.049.248-.07.063-.017.128-.032.191-.047.127-.03.253-.059.379-.082.062-.012.124-.023.185-.035.075-.012.152-.026.228-.036.109-.016.218-.03.326-.042.074-.008.147-.015.221-.021.067-.006.135-.011.202-.016s.133-.008.199-.011c.113-.006.225-.008.335-.009h.18c.076 0 .15.002.225.005.053.001.106.002.159.005.111.005.221.012.33.021.05.004.098.008.146.013.083.008.165.015.245.026.038.003.075.006.111.012.107.013.212.029.316.044.039.006.077.013.116.019.088.014.175.029.259.044.021.005.044.008.065.012.099.02.193.039.286.059.031.007.061.015.091.021.087.021.173.041.253.061.006.001.011.003.017.004.334.15.664.297.982.439 1.153.545 2.208 1.069 3.129 1.566.465.241.894.483 1.292.702.402.217.764.427 1.091.621.651.388 1.171.691 1.516.911.348.22.534.336.534.336s-.14-.174-.421-.487c-.286-.303-.696-.766-1.264-1.297-.563-.542-1.254-1.191-2.097-1.875-.834-.695-1.815-1.424-2.917-2.179-.554-.376-1.147-.735-1.757-1.121-.625-.354-1.268-.734-1.95-1.08-.685-.342-1.385-.707-2.131-1.01-.37-.158-.746-.317-1.125-.477-.384-.148-.778-.278-1.172-.419-.399-.131-.791-.299-1.205-.403-.411-.112-.826-.226-1.244-.338-.209-.055-.417-.117-.629-.167l-.414-.084c.004-.028.008-.057.011-.086.001 0 .001-.001.001-.001.72-.933 1.498-1.636 2.298-2.159.002 0 .004-.002.006-.004.278-.18.557-.337.838-.476.726-.361 1.458-.592 2.169-.727.013-.003.027-.005.039-.006.185-.036.366-.063.545-.084.013 0 .025-.003.038-.004.573-.066 1.127-.079 1.644-.053.016 0 .031.002.046.002.15.008.297.02.441.034.03.004.059.006.087.009.133.013.262.029.388.047.026.003.052.007.079.011.142.021.28.044.412.068.003 0 .006.001.008.001.031.013.063.027.093.039.626.28 1.23.549 1.809.809 1.152.544 2.208 1.068 3.13 1.566.466.243.894.482 1.292.704.401.215.764.426 1.089.618.654.388 1.171.691 1.517.912.348.219.533.338.533.338s-.139-.176-.42-.488c-.285-.304-.696-.767-1.264-1.299-.563-.54-1.255-1.188-2.097-1.872-.835-.695-1.816-1.425-2.918-2.182-.552-.375-1.146-.733-1.756-1.119-.626-.354-1.269-.734-1.95-1.082-.685-.34-1.384-.707-2.131-1.009-.371-.158-.746-.317-1.125-.477-.383-.146-.778-.279-1.173-.419-.398-.131-.79-.299-1.204-.403-.271-.073-.544-.148-.817-.223.134-.15.268-.298.404-.437.005-.003.01-.01.015-.014.138-.138.277-.268.418-.392.002-.002.005-.004.007-.007.646-.567 1.317-.996 1.992-1.313 2.921-1.373 5.911-.672 7.167-.262.006.002.012.005.018.007.055.018.105.035.152.051.012.005.025.009.038.014.041.014.079.028.115.041.015.006.027.012.041.016.03.011.059.022.084.032.014.005.026.01.038.015.02.007.038.016.055.022.013.006.022.009.032.013l.024.012c.01.004.019.008.019.008-.042-.025-.093-.059-.142-.09-.028-.019-.055-.035-.083-.053.801.39 1.547.767 2.219 1.13.465.242.894.482 1.292.702.401.217.763.427 1.09.621.652.388 1.171.691 1.517.912.348.219.533.337.533.337s-.14-.176-.421-.486c-.286-.305-.696-.767-1.265-1.3-.563-.538-1.256-1.189-2.097-1.872-.834-.695-1.815-1.425-2.918-2.181-.552-.375-1.146-.734-1.756-1.12-.466-.262-.946-.537-1.44-.804 2.105-.665 36.096-13.776 61.088-40.841 0 0-29.439 133.056-37.285 162.239 4.579 9.962 12.003 12.133 18.607 11.259 6.648-.88 12.882-1.761 20.361 3.522 7.479 5.285 13.296 14.532 13.296 14.532-4.433-3.522-5.969-5.62-10.526-6.311-6.788-1.03-8.45 6.017-18.422 2.054-1.739-.69-3.287-1.216-4.683-1.614.951 1.125 1.856 2.363 2.721 3.748 5.373 8.589 3.679 14.655 3.544 17.35-.136 2.696.656-6.375-6.44-11.913-2.114-1.649-5.799-1.112-9.767.209-3.675 1.221-8.43 2.204-14.855-6.298-.743-.982-1.663-2.048-2.666-3.15-5.099-.216-8.541-.993-10.777-2.193-2.569.046-5.459-.046-8.712-.294-3.24-.247-6.447-1.396-14.821 2.063-8.374 3.466-9.851-2.461-15.569-1.514-3.839.637-5.113 2.426-8.817 5.455.003 0 4.817-7.877 11.072-12.424zm-181.095 1.844c6.686-4.901 12.382-4.297 18.463-3.697 2.233.22 8.412-2.833 15.425-6.061 0 0 45.887-35.486 47.736-58.549 1.812-22.601-19.944-16.325-19.944-16.325s.08-.147.227-.42c1.87-2.114 3.676-4.189 5.37-5.721 5.465-4.944 10.662-1.655 12.381-.286.606.869 1.159 1.69 1.637 2.443.295.454.559.884.806 1.283.251.396.471.767.667 1.104.392.675.705 1.208.906 1.579.202.371.311.567.311.567s-.041-.224-.144-.641c-.11-.414-.256-1.03-.506-1.787-.245-.762-.55-1.687-.971-2.718-.41-1.039-.932-2.184-1.546-3.411-.31-.614-.665-1.233-1.02-1.884-.384-.632-.769-1.295-1.206-1.95-.442-.652-.885-1.332-1.397-1.981-.252-.33-.507-.662-.764-.997-.267-.326-.552-.644-.832-.972-.287-.321-.552-.669-.867-.972-.307-.311-.618-.624-.93-.938-.158-.157-.312-.318-.474-.471l-.501-.445c-.206-.177-.413-.356-.619-.536.012-.022.026-.044.038-.067 4.073-1.8 7.642.231 9.227 1.416.34.423.666.851.997 1.254.418.566.821 1.115 1.209 1.643.756 1.068 1.437 2.072 2.013 2.982.295.452.559.881.805 1.28.252.397.471.768.667 1.105.392.675.705 1.208.905 1.578.204.372.312.569.312.569s-.042-.224-.144-.64c-.11-.416-.257-1.031-.508-1.788-.244-.761-.549-1.688-.97-2.719-.41-1.039-.93-2.181-1.546-3.411-.311-.613-.664-1.233-1.02-1.885-.384-.63-.771-1.294-1.207-1.95-.443-.65-.885-1.331-1.397-1.98-.253-.33-.507-.662-.764-.996-.266-.329-.551-.645-.832-.973-.288-.319-.552-.668-.865-.972-.309-.31-.619-.624-.932-.937-.157-.158-.312-.319-.473-.473l-.502-.445c-.111-.097-.223-.193-.334-.29 3.737-1.851 7.09-.4 8.942.804.386.472.748.952 1.117 1.404.418.567.822 1.114 1.209 1.64.757 1.071 1.437 2.073 2.013 2.983.296.452.56.883.805 1.281.252.396.471.769.668 1.105.391.676.705 1.207.905 1.578.203.371.312.57.312.57s-.042-.225-.144-.642c-.109-.414-.257-1.028-.507-1.786-.244-.762-.549-1.688-.971-2.72-.409-1.037-.931-2.182-1.547-3.409-.309-.613-.663-1.234-1.018-1.885-.385-.632-.771-1.295-1.207-1.951-.442-.651-.885-1.332-1.397-1.981-.252-.329-.506-.662-.764-.997-.266-.328-.551-.644-.832-.972-.287-.32-.552-.669-.865-.972-.309-.311-.619-.624-.931-.939-.157-.156-.311-.317-.473-.471l-.502-.444c-.153-.132-.306-.266-.46-.398.066-.116.134-.232.201-.347 4.481-1.67 8.269 1.168 9.321 2.076.193.25.385.499.58.737.418.565.821 1.115 1.21 1.64.755 1.071 1.437 2.072 2.012 2.982.295.452.559.883.806 1.281.25.397.47.767.667 1.104.391.676.705 1.208.906 1.579.204.371.312.569.312.569s-.041-.225-.144-.642c-.109-.413-.257-1.029-.507-1.787-.244-.763-.55-1.688-.971-2.719-.41-1.038-.931-2.181-1.547-3.41-.31-.613-.663-1.232-1.019-1.885-.385-.632-.771-1.294-1.207-1.951-.443-.65-.885-1.33-1.399-1.98-.251-.329-.505-.66-.762-.996-.268-.329-.552-.645-.832-.974-.288-.319-.553-.667-.866-.972-.309-.311-.619-.623-.931-.938-.158-.155-.312-.317-.473-.469l-.502-.445c-.097-.084-.194-.168-.291-.253.054-.091.108-.182.163-.273 4.351-1.77 8.085.775 9.372 1.83.161.207.321.414.482.612.418.568.82 1.116 1.209 1.641.756 1.071 1.437 2.072 2.012 2.982.295.453.559.883.806 1.281.251.396.471.768.668 1.104.391.677.705 1.208.904 1.58.204.369.312.569.312.569s-.04-.225-.144-.643c-.109-.413-.256-1.029-.507-1.788-.244-.761-.55-1.687-.972-2.717-.408-1.039-.93-2.182-1.545-3.409-.31-.613-.664-1.234-1.02-1.886-.384-.632-.77-1.294-1.206-1.951-.442-.65-.885-1.331-1.397-1.98-.252-.329-.507-.663-.764-.997-.267-.328-.553-.644-.832-.972-.287-.32-.553-.668-.866-.973-.308-.311-.619-.622-.931-.938-.157-.156-.312-.317-.474-.47l-.484-.428c3.819-1.708 7.199-.039 8.921 1.158.236.304.467.604.703.891.418.567.822 1.116 1.21 1.641.755 1.07 1.437 2.072 2.013 2.983.294.452.559.883.806 1.281.251.397.471.767.667 1.105.391.675.705 1.207.906 1.578.203.372.311.57.311.57s-.042-.226-.145-.643c-.109-.413-.255-1.027-.507-1.787-.243-.762-.549-1.687-.971-2.718-.408-1.037-.931-2.182-1.545-3.41-.311-.613-.665-1.233-1.021-1.885-.384-.631-.77-1.295-1.206-1.95-.442-.652-.885-1.331-1.396-1.982-.252-.328-.507-.661-.765-.997-.267-.327-.552-.645-.831-.973-.288-.318-.553-.667-.866-.971-.308-.311-.618-.624-.932-.938-.155-.156-.31-.317-.472-.472l-.091-.081c5.002-2.033 9.192 1.637 9.78 2.187.253.342.502.681.742 1.008.757 1.07 1.437 2.071 2.013 2.982.296.453.56.882.806 1.282.251.396.471.768.667 1.104.392.675.706 1.208.907 1.579.202.37.311.568.311.568s-.041-.225-.144-.643c-.109-.412-.256-1.028-.506-1.788-.245-.761-.55-1.686-.972-2.717-.408-1.038-.93-2.182-1.545-3.412-.31-.613-.665-1.232-1.02-1.883-.384-.632-.771-1.295-1.207-1.951-.442-.65-.885-1.332-1.396-1.981-.252-.33-.507-.661-.764-.997-.266-.328-.552-.645-.832-.972-.287-.32-.552-.669-.866-.972-.199-.201-.399-.403-.6-.605 3.449-1.516 6.534-.288 8.355.843.411.558.809 1.098 1.19 1.615.756 1.071 1.437 2.073 2.014 2.984.295.45.558.882.805 1.28.251.395.47.767.668 1.105.391.675.704 1.208.905 1.578.203.371.311.568.311.568s-.041-.225-.144-.642c-.109-.412-.256-1.029-.507-1.787-.244-.76-.55-1.688-.971-2.717-.409-1.039-.93-2.182-1.546-3.41-.31-.613-.664-1.234-1.019-1.884-.385-.633-.771-1.297-1.207-1.952-.442-.651-.885-1.331-1.398-1.981-.251-.328-.505-.661-.762-.997-.269-.326-.553-.644-.833-.973-.112-.125-.222-.255-.331-.386.134-.137.27-.278.405-.413 4.122-1.149 7.544 1.364 8.596 2.26.065.095.136.193.201.287.093.136.185.271.275.404.067.098.133.197.198.293.092.138.182.272.27.406.053.081.107.162.159.24.139.213.274.421.402.625.295.45.559.882.805 1.28.252.396.471.769.668 1.104.391.676.706 1.209.905 1.579.204.372.311.569.311.569s-.04-.225-.143-.643c-.109-.412-.257-1.029-.507-1.787-.245-.761-.55-1.687-.972-2.717-.409-1.039-.93-2.182-1.546-3.409-.31-.615-.664-1.234-1.019-1.887-.383-.629-.77-1.293-1.206-1.949-.442-.651-.886-1.331-1.398-1.982-.066-.087-.135-.175-.202-.263 3.398-1.405 6.477.055 8.36 1.408.271.42.52.821.749 1.194.251.396.472.767.668 1.105.392.675.705 1.208.906 1.579.203.371.311.568.311.568s-.042-.224-.144-.642c-.11-.414-.257-1.029-.507-1.788-.042-.13-.088-.27-.133-.41.043.048.069.076.069.076-.024-.029-.052-.068-.078-.102v-.002c-.038-.117-.078-.236-.119-.359-.031-.092-.063-.185-.095-.28-.034-.099-.068-.196-.104-.298-.047-.132-.097-.268-.147-.404-.03-.082-.059-.161-.09-.244-.086-.227-.176-.458-.273-.695-.409-1.038-.93-2.182-1.546-3.41-.31-.613-.664-1.232-1.019-1.884-.137-.224-.275-.452-.415-.681-.001-.002-.002-.004-.004-.007 3.722-1.646 6.163.39 7.009 1.296.067.122.131.233.183.333.204.37.313.566.313.566s-.042-.223-.144-.641c-.11-.413-.257-1.028-.507-1.786-.244-.762-.55-1.689-.972-2.719-.099-.249-.203-.505-.314-.767-.105-.247-.217-.499-.332-.756-.006-.012-.01-.023-.016-.034 37.944-28.676 69.934-21.753 76.201-1.556 4.426 14.265-12.553 44.045-12.553 44.045s-86.067 85.551-122.446 120.504c4.702 4.712 10.447 5.679 15.687 4.912 7.163-1.049 13.878-2.09 22.036 3.338 8.159 5.426 14.586 15.057 14.586 15.057-4.841-3.629-6.533-5.809-11.464-6.453-7.344-.959-9.027 6.49-19.855 2.499-1.889-.696-3.568-1.22-5.08-1.614 1.043 1.167 2.041 2.457 2.997 3.896 5.936 8.947 4.203 15.365 4.101 18.204-.105 2.841.606-6.724-7.142-12.427-2.309-1.697-6.278-1.063-10.541.399-3.946 1.354-9.064 2.476-16.136-6.359-.781-.975-1.735-2.024-2.776-3.11-7.09.031-11.623-.765-14.344-2.167-2.119-.029-4.406-.112-6.89-.255-3.501-.201-6.982-1.354-15.967 2.443-8.985 3.803-10.673-2.412-16.832-1.308-4.135.739-5.482 2.646-9.432 5.902.005 0 5.075-8.379 11.756-13.283zm206.882-226.752c-18.921 11.682-41.202 22.981-63.583 33.207-26.425 12.075-52.984 22.656-74.297 30.604-5.803 2.084-11.238 3.993-16.173 5.696l125.453-80.794c3.57 9.555 12.267 18.304 28.6 11.287z"/>
    <path d="m1174.352 516.571.267 3.871c.039 1.169.132 2.302.251 3.759.029.353.06.73.092 1.13-1.747-.37-7.077-1.63-16.237-.731.883-.382 1.77-.808 2.659-1.282 1.264-.673 2.634-1.545 4.078-2.487 2.996-1.398 5.961-2.818 8.89-4.26zm29.408-130.452c2.284.024 5.757.249 9.108.782 6.487 1.033 13.777 3.331 19.679 8.314 1.914 1.851 4.219 4.398 6.412 7.643.031.045.059.091.088.135l-.018.05.173.188c.06.09.118.183.179.274 3.866 6.897 8.559 19.246 6.694 33.362-.711 4.313-1.993 8.93-3.992 13.853-2.642 5.804-6.636 11.697-12.43 17.465-5.987 5.958-13.449 11.952-21.972 17.894-.283.136-.601.286-.945.444-1.745.798-4.239 1.83-7.145 2.717-9.865 3.009-24.457 4.319-30.499-10.997-.058-.149-.119-.294-.177-.446.031-.024.06-.046.089-.071 0 0-.033.02-.094.056-.014-.034-.028-.067-.04-.103-.506.281-1.018.548-1.526.82-1.092.581-2.188 1.147-3.301 1.686v.001c-8.927 3.847-27.51 9.065-35.509-9.429-.138-.321-.271-.652-.404-.985-.04-.102-.083-.2-.123-.304l-5.114 3.361c-3.119 1.985-6.474 4.127-10.028 6.425-2.556 1.645-5.218 3.359-7.975 5.133-2.747 1.787-5.588 3.634-8.509 5.534-5.835 3.807-12.001 7.801-18.336 12.005-3.173 2.094-6.398 4.224-9.663 6.379-3.268 2.152-6.57 4.336-9.884 6.563-6.638 4.439-13.381 8.949-20.124 13.457-5.368 3.636-10.734 7.27-16.048 10.868l-57.742 37.187c.022.01.045.022.067.035l-13.537 8.719c-2.769 1.551-11.732 7.246-19.43 8.735-17.178 3.324-28.968 4.831-32.466 4.573-5.454-.4 241.911-184.304 295.208-210.181 1.135-.551 5.8-2.181 9.334-2.142z"/>
    <path d="m1092.13 499.946 32.871-21.169c3.562 7.53 10.539 13.716 22.623 10.709l-118.065 76.035c-11.491 5.175-33.752 13.345-75.94 23.706l138.544-89.224-.033-.057zm110.593 69.41c-.196.073-.392.145-.588.213-.848-4.06-1.099-8.293-.748-13 .391-2.992 1.065-6.006 1.848-8.98l.042-.017c6.644-2.81 12.695-8.042 17.441-14.992-.35 6.287.041 12.856 2.583 18.692.179.408.366.815.565 1.215-4.245 5.254-11.996 13.474-21.143 16.869zm-2.937 2.414c-.334.361-.686.72-1.048 1.075-1.034 1.01-2.168 1.986-3.311 2.896-1.496 1.188-3.006 2.262-4.327 3.147.911-2.284 2.06-5.58 3.407-10.292 1.929-6.749 2.362-13.73 2.452-15.849.18-.173.409-.395.668-.647.238-.229.48-.462.729-.7.317-.304.642-.615.966-.927-.321 2.021-.552 3.961-.694 5.83-.388 5.134-.099 9.756.865 14.21.092.419.189.838.293 1.257zm-1.921-44.647c-.249 6.011.271 12.225 2.743 17.846.021.048.042.097.063.145-1.06 1.127-2.616 2.622-4.048 3.993 0-.004-.001-.01-.001-.017-.122-3.797-1.157-7.588-3.034-11.109-.431-.922-.921-1.826-1.48-2.704-.404-.634-.859-1.24-1.361-1.818 1.866-1.428 4.708-3.629 7.118-6.336zm28.39 23.504c-.048.028-.095.057-.143.084-.216-.457-.414-.92-.6-1.389-2.568-6.47-2.387-14.031-1.68-20.917.016-.01.032-.02.047-.031 6.693-4.184 11.236-10.695 14.242-16.765.205 2.331.596 4.684 1.173 7.03.893 4.452 2.417 8.895 5.007 12.847-.254.596-.576 1.234-.954 1.902-3.172 5.613-10.426 13.373-17.092 17.239zm-25.337-27.519c.146-.084.292-.169.438-.257 5.49-3.323 10.365-8.775 13.943-15.506.23 3.305.817 6.576 1.749 9.773.843 3.337 2.085 6.574 3.916 9.544.016.026.033.052.049.077-4.362 7.894-10.581 14.145-17.321 17.447-.102.05-.202.106-.303.153-.013-.027-.024-.056-.037-.083-.111-.237-.209-.478-.312-.717-.136-.315-.268-.632-.391-.954-.312-.817-.59-1.644-.822-2.488-.859-3.11-1.201-6.378-1.242-9.649-.03-2.468.107-4.935.333-7.34zm-12.125 8.23c-.312-.267-.631-.519-.953-.769-.677-.52-1.373-1.007-2.086-1.447-2.469-1.521-5.155-2.732-8.002-3.601-.045-.571-.088-1.093-.128-1.574-.215-2.628-.333-4.068-.209-6.592 2.689-1.622 5.246-3.719 7.591-6.209 2.679-1.413 5.315-2.844 7.9-4.291.771 5.556 2.2 10.143 4.374 14.045.247.442.505.874.77 1.297-.11.182-.227.364-.346.542-.364.508-.725 1-1.087 1.476-2.413 2.984-5.695 5.494-7.667 7.003-.053.041-.106.081-.157.12zm15.3-14.057c-.91.797-1.842 1.535-2.802 2.193-.34.233-1.115.726-1.156.751-.077-.125-.801-1.412-1.032-1.873-.008-.016-.015-.032-.023-.048-1.178-2.359-2.084-4.999-2.745-7.986-.341-1.549-.618-3.189-.828-4.935.12-.069.24-.137.359-.206.451-.259.9-.519 1.348-.778 5.183-3.006 10.14-6.083 14.812-9.222.869 2.109 1.879 4.055 3.021 5.83.024.036.046.074.069.112-2.621 6.57-6.486 12.19-11.023 16.162zm33.668-11.834c.015.023 0 0 .015.024-3.272 8.502-7.97 15.047-13.584 19.203-.258.191-.515.38-.775.562-.007.004-.014.01-.021.015-.095-.153-.181-.312-.272-.466-.146-.244-.295-.487-.433-.736-1.333-2.402-2.282-4.996-2.961-7.677-1.214-4.796-1.56-9.868-1.648-14.618 6.606-4.331 10.853-11.104 13.438-16.75.686 6.935 2.207 14.434 6.241 20.443zm-20.684-6.494c-1.018-1.637-1.915-3.437-2.688-5.386 5.704-3.944 10.95-7.984 15.618-12.112-2.216 5.5-6.239 12.906-12.93 17.498zm32.26 28.373c-.948.743-1.926 1.417-2.936 2.016-.031.019-.063.04-.094.058-2.175-3.461-3.489-7.366-4.287-11.305-.854-4.222-1.113-8.487-1.182-12.302 5.126-3.62 9.311-8.778 12.893-15.928.466 3.584 1.392 7.182 2.81 10.92 1.197 3.708 2.777 7.097 4.712 10.051-.843 1.885-1.73 3.635-2.657 5.27-2.703 4.766-5.77 8.485-9.259 11.22zm-5.154-61.174c1.749 5.83 4.415 12.509 9.019 17.691-.003.161-3.433 8.632-8.344 14.466-.796.946-1.656 1.794-2.528 2.595-1.821 1.579-2.938 1.997-3.064 2.077-.07-.146-2.319-5.167-2.71-6.848-1.583-4.72-2.233-9.805-2.545-14.645 3.15-3.263 5.689-7.271 7.605-11.98.903-1.115 1.76-2.233 2.567-3.356zm30.319 20.008c-.002.013-.005.028-.008.041-.052.24-.11.476-.166.712-.041.172-.078.346-.121.516-.197.792-.417 1.57-.655 2.334-.006.018-.011.038-.017.058-.368 1.173-.779 2.31-1.223 3.407v.003c-.253.625-.516 1.236-.786 1.834-.271.596-.548 1.18-.832 1.75-.038.075-.074.153-.112.229-.016.031-.031.06-.047.09-.999 1.975-2.058 3.765-3.079 5.331-.612.938-1.208 1.795-1.771 2.565-.469.642-.916 1.229-1.321 1.743-.475.597-.896 1.105-1.248 1.517-1.633-2.989-2.955-5.827-3.999-8.581-2.069-5.455-3.024-10.564-2.986-15.784.173-.178.341-.366.511-.55.07-.076.142-.15.211-.228 4.68-4.603 7.411-10.69 9.173-16.619.151-.473.296-.949.435-1.43.031-.104.063-.207.093-.31.809 3.38 1.75 6.655 3.329 10.141.352.775.733 1.559 1.153 2.358 1.049 1.998 2.329 4.083 3.928 6.308-.005.03-.01.061-.015.09-.12.838-.272 1.662-.447 2.475zm-20.483-45.584c2.326 6.59 5.966 12.652 11.026 18.37-.45 2.17-.992 4.472-1.685 6.789-1.419 4.744-3.488 9.55-6.735 13.453-.516.619-1.052 1.224-1.629 1.793-.003-.002-.005-.006-.008-.009-.096-.114-.19-.234-.286-.351-3.736-4.515-6.648-10.547-8.47-17.497 2.765-4.353 4.789-8.776 5.948-13.258.836-3.232 1.437-6.326 1.839-9.29zm26.503 32.348c-1.557 3.45-3.152 6.192-4.142 7.775-5.139-7.531-6.462-13.473-7.978-20.282-.112-.505-.229-1.021-.345-1.536 6.647-8.424 7.778-15.929 8.52-22.617.633 2.003 1.376 3.861 2.324 5.804 2.413 5.434 4.845 8.769 6.052 10.243.14 1.894.086 3.792-.114 5.667-.585 5.481-2.419 10.738-4.317 14.946zm-14.032-16.643c-5.969-6.935-9.764-14.385-11.578-22.718.011-.093.023-.188.035-.282 1.657-2.728 5.248-9.799 6.114-20.948 5.063 10.501 11.307 15.591 13.56 17.184-.362 5.108-1.629 12.509-2.127 14.455-.992 3.88-2.702 7.937-6.004 12.309zm22.231-12.937c-.513 1.663-2.488 5.917-2.518 5.968-1.468-1.993-3.083-4.725-4.607-8.096-1.145-2.531-2.237-5.426-3.178-8.641-.292-1.001-.572-2.032-.833-3.094.027-.042.058-.088.089-.133.874-1.325 2.638-4.417 4.24-9.762.431-1.393.836-2.926 1.189-4.599.472-2.131.897-4.512 1.239-7.166 1.224 2.496 2.595 4.835 4.099 7.013 1.002 2.276 1.854 4.86 2.274 7.644.184 1.209.287 2.457.286 3.732-.003 3.284-.203 6.194-.525 8.753-.425 3.384-1.067 6.157-1.755 8.381zm-20.833-58.799c5.18 10.745 11.595 15.827 13.707 17.291.115 11.318-2.851 19.154-4.826 23.101-.381.76-.726 1.376-1.003 1.846-.175-.133-.371-.285-.583-.456-2.974-2.387-9.366-8.562-13.769-20.266 1.428-2.205 5.539-9.49 6.474-21.516zm-23.107 4.849c5.179 10.738 11.591 15.817 13.701 17.281.103 9.838-2.104 17.007-3.98 21.308-.813-12.061-5.425-21.302-11.547-28.03.928-3.328 1.542-6.854 1.826-10.559zm-2.587-5.675c.055 4.951-.446 9.615-1.5 13.925-5.402-5.133-11.671-8.531-17.463-10.37-.485-.155-.968-.298-1.442-.437 1.449-1.922 5.716-8.504 6.692-20.424 5.181 10.754 11.598 15.839 13.713 17.306zm49.683 5.939c.433 2.968.769 6.106.888 9.19.273 7.099-.642 12.075-1.382 14.851-.015.252-3.578-5.098-4.871-7.812-.714-1.5-1.38-3.052-1.986-4.664 1.3-2.008 4.824-8.229 6.15-18.403.425 2.081.846 4.401 1.201 6.838zm-3.46-15.618c.139 13.505-4.107 22.058-5.828 24.955-2.627-1.984-9.623-8.182-14.341-20.723 1.422-2.197 5.533-9.478 6.468-21.514 5.177 10.738 11.584 15.814 13.701 17.282zm-23.113 4.838c.142 13.564-4.104 22.077-5.825 24.958-2.624-1.981-9.623-8.179-14.345-20.727 1.423-2.197 5.534-9.478 6.469-21.514 5.177 10.738 11.584 15.814 13.701 17.283zm-62.059 5.678s1.329-10.551 1.628-14.394c3.834 8.267 8.446 12.966 11.512 15.394-8.079-1.614-13.14-1-13.14-1zm-41.212-89.714c.002-.013.002-.011 0 0zm-.062-.076c.006.014.044.042.062.076.01.021.015.042-.009.066-.037-.038-.072-.073-.109-.11.018-.011.038-.022.056-.032z"/>
    <path d="M1144.81 341.428c.019-3.517 2.311-7.929 4.986-10.725 6.373-6.661 19.037-10.889 32.052-10.859 1.441.003 3.687.199 5.76-.221.641-.128.281.379-.134.422-6.311.666-11.672 1.601-16.226 2.704-9.928 2.405-16.025 5.618-19.767 8.632 0 0 2.228-1.103 4.359-1.776 3.962-1.335 10.773-3.04 17.217-3.419 3.048-.18 6.01-.008 8.555.284.521-.059 1.043-.118 1.572-.18 2.693-.323 5.486-.661 8.209-1.283 1.345-.313 2.717-.698 3.816-1.33.54-.312.983-.709 1.143-1.082.083-.186.119-.363.108-.581-.007-.214-.071-.469-.173-.735-.206-.525-.585-1.125-.997-1.61l-.368-.426c-.118-.122-.227-.223-.34-.336-.106-.111-.227-.22-.356-.328-.125-.109-.245-.225-.374-.328-.514-.418-1.068-.78-1.642-1.105-.584-.31-1.184-.595-1.808-.832-2.507-.938-5.237-1.333-7.933-1.793-1.35-.23-2.7-.488-4.029-.817-1.328-.351-2.641-.775-3.88-1.393-.309-.157-.612-.317-.908-.5l-.223-.132-.12-.074-.097-.064-.388-.255c-.507-.328-1.046-.708-1.543-1.07-.996-.729-1.924-1.487-2.774-2.267-.853-.776-1.639-1.558-2.349-2.341-.706-.789-1.325-1.584-1.881-2.35-1.12-1.525-1.884-3.229-2.26-4.482-.493-1.646-.405-2.698-.259-3.311.06-.251.187-.475.265-.555-.037-.038-.072-.073-.109-.11-2.893 1.583-7.624 4.868-8.523 5.554-5.22 3.989-9.071 9.305-11.382 16.455-3.915 12.115 2.801 24.619 2.801 24.619zm9.724-32.628c1.335-3.295 3.691-4.671 6.464-5.924.118 1.371.507 2.317.899 2.962-3.365-.116-5.871 1.827-7.363 2.962z"/>
    <path d="M1162.024 294.908c-.215 1.737 2.232 5.954 3.438 7.257.605.65 1.286 1.302 2.019 1.964.729.668 1.528 1.328 2.391 1.976.866.641 1.778 1.293 2.755 1.915.494.305.958.608 1.502.924l.399.237.1.059c.009.005.049.03.034.019l.047.024.184.099c.242.137.497.257.756.375 2.081.955 4.596 1.416 7.265 1.875 2.666.479 5.557.915 8.414 2.127.711.308 1.414.667 2.096 1.084.673.435 1.327.919 1.933 1.473.298.293.587.555.869.9.139.163.287.332.415.492l.333.456c.513.692.965 1.383 1.299 2.29.159.449.284.951.291 1.507.014.551-.118 1.148-.368 1.645-.251.499-.594.894-.947 1.204-.354.312-.724.547-1.092.751-.737.402-1.476.665-2.208.886-.731.218-1.459.387-2.182.53-1.294.243-2.573.418-3.838.561.841.19 1.334.325 1.376.332.009.002 3.036.938 5.485 2.336 6.149 3.508 10.511 12.124 10.514 29.696 1.988-4.294 4.558-12.01 4.312-22.864l-.192-8.482 2.866 7.922c4.719 13.047 11.945 19.44 14.622 21.46 1.754-2.936 6.135-11.716 5.817-25.739l-.192-8.481 2.526 6.982.34.939c.134.373.273.735.412 1.097 2.273 5.929 5.049 10.418 7.61 13.695 2.754 3.525 5.252 5.652 6.599 6.669 1.754-2.937 6.135-11.717 5.817-25.741l-.032-1.431-.161-7.049 2.52 6.96.348.96c4.717 13.041 11.939 19.435 14.618 21.459 1.753-2.954 6.136-11.777 5.821-25.738l-.026-1.194-.1-4.367-.008-.349 2.724 5.16c.127.241 1.417 2.703 3.041 6.365.47 1.06.968 2.223 1.474 3.459 5.401 3.487 11.125 2.94 11.125 2.94s-3.191.04-11.332-16.413c-11.324-22.887-20.467-30.979-20.467-30.979l.075.166c-6.676-8.439-14.378-14.598-22.78-18.614-.2-.096-.415-.184-.637-.272.435-.918.854-1.898 1.198-2.879 1.62-4.631 2.042-9.383 1.77-9.09-6.689 7.201-45.84 12.911-48.847 13.42-12.648 2.143-24.121 7.842-34.168 17.63-.868.843-1.571 1.971-2.255 3.058-.467.745-.417 1.597.229 2.254.636.65 1.278 1.303 1.947 1.983.019-.011.038-.022.057-.032.006.014.044.042.062.076.006.021.01.043-.013.066zm3.834-.16c2.75 1.638 7.543 2.154 10.609 1.642 3.135-.523 4.613-.763 7.603-2.02 10.337-5.43 24.134.124 24.152.13-4.165-.582-10.472-2.158-15.346.591 1.634 2.093 1.721 5.781 1.123 7.785-1.138 3.815-5.39 5.413-8.714 4.498-3.514-.966-5.076-4.498-5.076-4.498s3.957-1.082 6.335-2.445c4.153-2.38 3.355-4.697 3.335-4.689-.042.018-2.462 1.804-5.446 3.174-2.456 1.129-13.82 3.174-18.575-4.168z"/>
    <path d="M1162.033 294.842c-.001.011-.004.03-.009.066-.037-.038-.072-.073-.109-.11.019-.011.038-.022.057-.032.005.014.044.043.061.076z"/>
    <path d="M1162.033 294.842c-.003.021-.009.066-.009.066.005-.036.008-.055.009-.066z"/>
    <path d="M1162.024 294.908s.006-.045.009-.066c.01.021.014.043-.009.066zm126.553 54.538c1.348 8.312 1.304 14.185.941 17.943-.145 1.49-.34 2.649-.518 3.494-.202-.159-.422-.339-.657-.536-3.143-2.644-9.102-8.768-13.274-19.862 1.454-2.244 5.687-9.752 6.521-22.167 2.373 5.237 5.774 13.645 6.987 21.128zm-16.439 1.654c.121 11.952-3.193 20.02-5.148 23.726-.253.48-.484.889-.681 1.221-.303-.229-.668-.517-1.077-.862-3.144-2.642-9.101-8.767-13.275-19.86 1.428-2.205 5.538-9.489 6.474-21.516 5.179 10.745 11.595 15.827 13.707 17.291zm-23.114 4.838c.123 11.952-3.192 20.02-5.147 23.726-.253.479-.484.889-.682 1.221-.304-.229-.667-.517-1.077-.861-3.143-2.642-9.102-8.767-13.274-19.86 1.428-2.204 5.538-9.49 6.474-21.516 5.181 10.745 11.595 15.826 13.706 17.29zm-23.111 4.838c.137 13.641-4.266 21.33-5.962 23.78-2.483-1.581-9.464-6.936-14.218-19.556 1.428-2.205 5.538-9.489 6.473-21.515 5.18 10.747 11.595 15.828 13.707 17.291zm-208.108 226.603c-1.203 2.68-1.956 5.543-2.078 8.343-30.552 16.938-129.813 69.206-143.277 74.239-14.017 5.238-27.729-3.754-27.729-3.754s115.469-52.498 173.084-78.828zm-.282 16.423c-24.676 16.442-94.414 62.251-111.708 72.426-11.228 6.606-28.582-.958-28.582-.958l138.642-76.41c.245 1.734.779 3.403 1.648 4.942zm3.593 4.115c.681.526 1.381.992 2.096 1.414-21.199 17.379-74.293 56.083-91.091 70.089-7.7 6.42-22.69 1.847-22.69 1.847l109.614-75.304c.601.692 1.287 1.348 2.071 1.954zm11.032 4.35c-20.613 19.665-64.943 59.448-73.96 66.733-7.296 5.896-21.612 4.163-21.612 4.163l89.393-72.478c1.985.803 4.06 1.297 6.179 1.582zm16.155-.348c.55-.094 1.098-.193 1.645-.296-10.746 12.767-38.882 45.966-47.341 53.677-15.185 13.84-38.021 15.989-38.021 15.989l71.894-68.705c3.99.08 8.026-.342 11.823-.665zm48.674-59.333c-21.592 18.297-36.826 49.204-36.826 49.204s-29.597 8.434-35.537-3.321c-6.739-13.332 21.076-24.681 21.076-24.681l51.287-21.202z"/>
  </g>
  <g fill="#ECBF69">
    <path d="M685 358.091c0 12.348-10.009 22.357-22.358 22.357-12.348 0-174.923-22.357-174.923-22.357s162.575-22.359 174.923-22.359c12.349 0 22.358 10.011 22.358 22.359zm106.051 0c0 12.348 10.01 22.357 22.358 22.357s174.923-22.357 174.923-22.357-162.575-22.359-174.923-22.359-22.358 10.011-22.358 22.359zm-53.025 53.025c12.348 0 22.358 10.01 22.358 22.357 0 12.349-22.358 174.924-22.358 174.924s-22.358-162.575-22.358-174.924c0-12.348 10.009-22.357 22.358-22.357zm0-106.05c12.348 0 22.358-10.011 22.358-22.358 0-12.349-22.358-174.923-22.358-174.923s-22.358 162.575-22.358 174.923c0 12.347 10.009 22.358 22.358 22.358zm-37.494 90.519c8.732 8.731 8.732 22.887 0 31.62-8.732 8.731-139.499 107.879-139.499 107.879s99.148-130.768 107.88-139.499c8.731-8.731 22.887-8.731 31.619 0zm74.989-74.989c8.732 8.731 22.887 8.731 31.62 0 8.731-8.731 107.88-139.499 107.88-139.499s-130.768 99.148-139.5 107.88c-8.732 8.731-8.732 22.888 0 31.619zm0 74.989c8.732-8.731 22.887-8.731 31.62 0 8.731 8.731 107.88 139.499 107.88 139.499s-130.768-99.148-139.5-107.879c-8.732-8.733-8.732-22.889 0-31.62zm-74.989-74.989c8.732-8.731 8.732-22.888 0-31.619-8.732-8.732-139.499-107.88-139.499-107.88s99.148 130.768 107.88 139.499 22.887 8.732 31.619 0z"/>
    <circle cx="738.026" cy="358.091" r="30.341"/>
  </g>
</svg>